<?xml version="1.0" encoding="utf-8"?>
<!-- Generator: Adobe Illustrator 27.10.0, SVG Export Plug-In . SVG Version: 6.00 Build 0)  -->
<svg version="1.1" id="Camada_1" xmlns="http://www.w3.org/2000/svg" xmlns:xlink="http://www.w3.org/1999/xlink" x="0px" y="0px"
	 viewBox="0 0 595.28 551.01" style="enable-background:new 0 0 595.28 551.01;" xml:space="preserve">
<style type="text/css">
	.st0{fill:#575756;}
	.st1{fill:#3C3C3B;}
	.st2{fill:#868686;}
	.st3{fill:#1D1D1B;}
	.st4{fill:#FFFFFF;}
	.st5{fill:#8CBF3D;}
	.st6{fill:#0E6633;}
	.st7{fill:#044421;}
</style>
<g>
	<path class="st6" d="M440.35,310.91c-7.78-19.92-8.01-33.63-18.22-55.12c-20.71-43.57-68.75-51.56-90.76-52.91
		c23.43,3.07,71.71,24.93,84.01,151.95l10.09-0.01L440.35,310.91z"/>
	<polygon class="st7" points="214.18,268.24 246.6,206 212.73,206.04 177.47,270.79 141.36,206.15 103.79,206.2 97.11,354.5 
		134.91,354.44 137.67,267.51 166.64,318.16 188.21,318.13 214.15,267.4 	"/>
	<path class="st6" d="M309.26,236.72c1.56-0.89,3.29-1.56,5.22-2.01c1.93-0.45,3.85-0.67,5.78-0.68
		c22.92-0.03,55.26,11.12,72.9,42.76c-1.03-15.38-21.34-70.44-73.17-74.1l0,0h0c-9.33,0.01-17.56,1.25-24.67,3.7
		c-7.11,2.46-13.07,5.88-17.88,10.25c-4.81,4.38-8.47,9.5-10.98,15.36c-2.51,5.86-3.76,12.2-3.75,19.01
		c0.01,6.08,1.16,11.38,3.47,15.89c2.3,4.52,5.31,8.44,9.02,11.77c3.71,3.33,7.9,6.18,12.57,8.54c4.67,2.37,9.31,4.29,13.9,5.76
		l8.23,2.66c7.56,2.51,13.31,5.02,17.24,7.53c3.93,2.52,5.9,5.7,5.9,9.55c0,2.37-0.52,4.3-1.55,5.78c-1.04,1.49-2.37,2.67-4,3.56
		c-1.63,0.89-5.56,0.95-5.56,0.95c-31.56,0.31-54.63-11.36-66.84-33.68c10.73,53.71,40.98,65.75,50.8,68.27
		c4.12,0.34,8.34,0.58,12.74,0.66c0,0,14.88-1.13,21.47-3.2c7.33-2.31,13.7-5.54,19.1-9.7c5.4-4.15,9.69-9.13,12.87-14.91
		c3.18-5.79,4.76-12.08,4.75-18.91c-0.01-7.85-1.36-14.48-4.03-19.89c-2.67-5.41-6.09-9.92-10.25-13.55
		c-4.16-3.62-8.83-6.51-14.02-8.65c-5.19-2.14-10.31-4.02-15.35-5.65l-7.12-2.21c-3.11-1.03-6.05-2.03-8.79-2.99
		c-2.74-0.96-5.08-2.03-7.01-3.21c-1.93-1.18-3.45-2.59-4.56-4.22c-1.12-1.63-1.67-3.55-1.68-5.78c0-2.08,0.47-3.82,1.44-5.23
		C306.45,238.77,307.7,237.61,309.26,236.72z"/>
	<path class="st7" d="M246.26,261.29c-1.99-14.35-1.25-31.08,2.45-50.02c-0.09-2.26-0.14-4.06-0.16-5.5l-34.72,0.05
		c-13.01,93.25,14.1,145.28,91.76,151.76C259.64,347.88,247.84,300.56,246.26,261.29z"/>
	<polygon class="st5" points="459.53,207.19 415.61,355.54 448.91,355.35 498.16,207.13 	"/>
	<path class="st7" d="M129.53,189.27c31.88-60.68,95.54-102.16,168.71-102.16s136.82,41.48,168.71,102.16h21.55
		c-10.23-22.01-24.34-42.28-42.02-59.95c-39.6-39.6-92.25-61.41-148.25-61.41s-108.65,21.81-148.25,61.41
		c-17.67,17.67-31.79,37.95-42.02,59.95H129.53z"/>
	<path class="st7" d="M452.39,383.82c-34.04,48.53-90.39,80.32-154.04,80.32s-120-31.79-154.04-80.32h-22.8
		c8.49,13.88,18.67,26.86,30.47,38.65c39.1,39.1,91.08,60.63,146.36,60.63s107.27-21.53,146.36-60.63
		c11.8-11.8,21.98-24.77,30.47-38.65H452.39z"/>
	<g>
		<path class="st3" d="M202.07,397.17l-4.18,2.56l-3.62-2.71l20.16-12.59l2.66,2l-6.62,22.74l-3.67-2.75l1.38-4.66L202.07,397.17z
			 M211.81,390.36l-0.05-0.04l-6.65,4.83l4.18,3.13L211.81,390.36z"/>
		<path class="st3" d="M228.27,394.59l5.5,2.71c1.43,0.71,2.61,1.59,3.53,2.67c0.92,1.07,1.59,2.25,2,3.53
			c0.41,1.28,0.55,2.62,0.42,4.02c-0.13,1.41-0.54,2.8-1.22,4.19c-0.67,1.37-1.54,2.53-2.59,3.47c-1.05,0.94-2.21,1.64-3.47,2.09
			c-1.26,0.45-2.6,0.64-4.02,0.56s-2.83-0.47-4.24-1.16l-5.47-2.69L228.27,394.59z M224.2,412.57l0.63,0.31
			c1.19,0.58,2.27,0.93,3.25,1.03c0.98,0.1,1.87,0,2.67-0.3c0.8-0.3,1.51-0.78,2.15-1.45c0.63-0.67,1.18-1.48,1.66-2.44
			c1.05-2.12,1.29-3.99,0.72-5.6c-0.56-1.61-1.95-2.95-4.14-4.04l-0.63-0.31L224.2,412.57z"/>
		<path class="st3" d="M252.78,420.44l0.06,0.02l8.88-12.53l4.42,1.33l-14.56,18.78l-2.4-0.72l-1.68-23.65l4.42,1.33L252.78,420.44z
			"/>
		<path class="st3" d="M275.56,414.59l-0.77,4.69l6.74,1.11l-0.6,3.62l-6.74-1.11l-0.95,5.77l7,1.15l-0.59,3.62l-11.23-1.84
			l3.5-21.31l11.23,1.84l-0.59,3.62L275.56,414.59z"/>
		<path class="st3" d="M290.78,412.52l3.09,0.15l10.84,15.63l0.06,0l0.7-14.5l4.28,0.21l-1.06,22l-3.09-0.15l-10.84-15.63l-0.06,0
			l-0.71,14.65l-4.28-0.21L290.78,412.52z"/>
		<path class="st3" d="M327.65,432.11l-4.21,0.82l-3.43-17.6l-4.35,0.85l-0.7-3.6l12.92-2.52l0.7,3.6l-4.35,0.85L327.65,432.11z"/>
		<path class="st3" d="M333.96,408.65l4.08-1.31l3.69,11.51c0.21,0.64,0.45,1.31,0.74,2c0.29,0.7,0.65,1.31,1.09,1.83
			c0.44,0.52,0.97,0.9,1.59,1.14c0.62,0.24,1.36,0.22,2.23-0.05c0.87-0.28,1.49-0.7,1.85-1.25c0.36-0.56,0.57-1.18,0.63-1.86
			c0.06-0.68,0-1.39-0.18-2.12c-0.17-0.74-0.37-1.42-0.57-2.06l-3.69-11.51l4.08-1.31l3.95,12.3c0.4,1.25,0.63,2.46,0.69,3.63
			c0.06,1.16-0.1,2.24-0.46,3.23c-0.37,0.99-0.97,1.86-1.81,2.62c-0.84,0.76-1.96,1.37-3.37,1.82c-1.41,0.45-2.67,0.61-3.8,0.48
			c-1.12-0.13-2.12-0.49-3-1.08c-0.88-0.59-1.63-1.38-2.26-2.36c-0.63-0.98-1.15-2.1-1.55-3.35L333.96,408.65z"/>
		<path class="st3" d="M379.45,413.38l-4.64,2.33l-8.68-5.39l-0.05,0.03l3.9,7.78l-3.83,1.92l-9.68-19.31l5.19-2.6
			c0.97-0.49,1.92-0.82,2.84-1.01c0.92-0.18,1.78-0.18,2.59,0c0.81,0.18,1.56,0.56,2.25,1.13c0.69,0.57,1.29,1.37,1.8,2.4
			c0.31,0.62,0.53,1.26,0.65,1.95c0.13,0.68,0.14,1.36,0.04,2.01c-0.09,0.66-0.3,1.28-0.63,1.87c-0.32,0.59-0.79,1.1-1.4,1.54
			L379.45,413.38z M364.76,407.71l0.5-0.25c0.52-0.26,0.98-0.55,1.38-0.85c0.4-0.31,0.71-0.66,0.91-1.05s0.3-0.82,0.29-1.28
			c-0.01-0.46-0.17-0.99-0.47-1.59c-0.3-0.6-0.63-1.03-1-1.31c-0.37-0.28-0.76-0.44-1.18-0.48c-0.43-0.04-0.88,0.01-1.35,0.15
			c-0.47,0.14-0.96,0.34-1.47,0.59l-0.52,0.26L364.76,407.71z"/>
		<path class="st3" d="M380.29,391.38l2.77,3.86l5.55-3.98l2.13,2.98l-5.55,3.98l3.4,4.75l5.76-4.13l2.14,2.98l-9.25,6.63
			l-12.58-17.55l9.25-6.63l2.13,2.98L380.29,391.38z"/>
	</g>
</g>
</svg>
